<svg width="26" height="29" viewBox="0 0 26 29" fill="none" xmlns="http://www.w3.org/2000/svg">
<path d="M20.7375 6.81002C20.5309 6.6552 20.2379 6.69699 20.0828 6.90365C19.9278 7.1103 19.9698 7.4035 20.1762 7.55832C20.9257 8.12531 21.5141 8.87818 21.8829 9.74224C22.1729 10.3946 22.3243 11.1002 22.3275 11.814C22.3275 12.0723 22.5369 12.2817 22.7952 12.2817C23.0534 12.2817 23.2628 12.0723 23.2628 11.814C23.2596 10.973 23.0822 10.1419 22.742 9.37278C22.3086 8.35868 21.6176 7.4752 20.7375 6.81002Z" fill="#333333"/>
<path d="M17.6447 3.86431H17.6372C16.6939 3.86864 15.7622 4.07165 14.9027 4.46007C13.7004 1.87996 11.1434 0.200914 8.29795 0.123047C4.31213 0.123047 0.81543 3.83805 0.81543 8.07322C0.81543 11.7364 3.32954 16.7155 6.6326 18.0212L6.43394 19.2203C6.41133 19.3559 6.4497 19.4945 6.53852 19.5993C6.62712 19.7041 6.75774 19.7647 6.89497 19.7647H7.64898L7.35281 20.6532C7.03039 21.612 7.17219 22.6665 7.73689 23.5059L8.08421 24.0268C8.48656 24.6264 8.58749 25.3791 8.35732 26.0636L7.85609 27.5685C7.77434 27.8139 7.90724 28.0788 8.15249 28.1606C8.39796 28.2421 8.66308 28.1094 8.7446 27.8639L9.24308 26.3587C9.56574 25.3998 9.42393 24.3453 8.85923 23.5059L8.51168 22.9851C8.10887 22.3854 8.00772 21.6328 8.23812 20.9482L8.63476 19.7647H9.70092C9.83838 19.7647 9.96877 19.7041 10.0576 19.5993C10.1464 19.4945 10.1846 19.3559 10.1622 19.2203L9.96329 18.0221C10.5337 17.7931 11.066 17.4789 11.5421 17.09C12.5242 19.0613 14.074 21.0114 15.9848 21.7691L15.7871 22.9615C15.7645 23.0972 15.8028 23.2358 15.8917 23.3406C15.9803 23.4454 16.1109 23.5059 16.2481 23.5059H17.0021L16.706 24.3944C16.3835 25.3533 16.5253 26.4078 17.09 27.2472L17.4369 27.7671C17.4744 27.8233 17.5091 27.8813 17.5413 27.9398C17.6232 28.0902 17.781 28.1836 17.9523 28.1834C18.0304 28.1834 18.1071 28.1635 18.1754 28.1259C18.4021 28.0023 18.4859 27.7185 18.3624 27.4917C18.3156 27.4095 18.269 27.3285 18.2156 27.249L17.8683 26.7281C17.4652 26.1287 17.3643 25.3759 17.5945 24.6915L17.9879 23.5059H19.0541C19.1915 23.5059 19.3219 23.4454 19.4107 23.3406C19.4996 23.2358 19.5377 23.0972 19.5153 22.9615L19.3187 21.7775C20.6582 21.2546 21.9326 20.1092 23.0134 18.4224C24.3038 16.4463 25.0363 14.1582 25.1336 11.8001C25.1238 7.56994 21.6262 3.86431 17.6447 3.86431V3.86431ZM1.75074 8.07322C1.75074 4.33607 4.81015 1.05836 8.29795 1.05836C10.8089 1.05836 13.144 2.70772 14.248 5.26203C14.639 6.14802 14.8422 7.10502 14.8451 8.07322C14.8442 8.41734 14.8216 8.76078 14.7773 9.10216C14.7232 9.51045 14.6451 9.91531 14.5435 10.3147C14.021 12.4598 12.9279 14.4236 11.3804 15.998C10.7965 16.5799 10.0848 17.0169 9.30199 17.2747C8.81424 17.4261 8.2984 17.4652 7.7933 17.3889C7.62318 17.3631 7.45534 17.3248 7.2907 17.2743C4.22239 16.3508 1.75074 11.487 1.75074 8.07322ZM7.44689 18.8293L7.53572 18.2929C7.56335 18.298 7.59052 18.2996 7.61793 18.3041C7.64556 18.3089 7.6862 18.313 7.72045 18.3176C7.9093 18.3452 8.09974 18.3599 8.29064 18.3617H8.30548C8.49615 18.3601 8.68637 18.3455 8.87521 18.3183C8.90923 18.3135 8.94394 18.3103 8.97797 18.3046C9.01222 18.2991 9.03277 18.2987 9.0604 18.2934L9.14923 18.8293H7.44689ZM18.5024 22.5706H16.8L16.8889 22.0342C16.9416 22.0436 16.9946 22.0481 17.0469 22.0557C17.091 22.0618 17.1343 22.0682 17.1784 22.0735C17.3353 22.0918 17.4931 22.1016 17.6511 22.1029H17.6639C17.9146 22.1023 18.1651 22.0796 18.4119 22.0356L18.5024 22.5706ZM22.2276 17.9173C21.1722 19.5626 19.9006 20.6472 18.63 21.0208C18.483 21.0646 18.3332 21.0987 18.1815 21.1226L18.1187 21.1315C17.8071 21.1758 17.4906 21.1758 17.1789 21.1315C17.1396 21.1261 17.1017 21.1167 17.0629 21.1096C16.935 21.0879 16.8083 21.0592 16.6836 21.0235C14.7853 20.4801 13.215 18.445 12.2662 16.4406C12.294 16.4125 12.3208 16.3808 12.3479 16.3522C12.4064 16.2908 12.4639 16.2282 12.5215 16.1652C12.5898 16.0896 12.6573 16.0129 12.7245 15.9346C12.7813 15.8677 12.8371 15.7998 12.8928 15.7307C12.9583 15.6503 13.0227 15.5683 13.0864 15.4847C13.1412 15.4126 13.1956 15.3397 13.249 15.2657C13.3116 15.1808 13.3723 15.0945 13.4314 15.0072C13.4844 14.9305 13.5363 14.8533 13.5876 14.7734C13.6461 14.6846 13.7032 14.5942 13.7598 14.5031C13.8098 14.4227 13.8594 14.3416 13.908 14.2594C13.9628 14.1658 14.016 14.0724 14.0685 13.9788C14.1151 13.894 14.1619 13.81 14.2087 13.7248C14.2597 13.6312 14.3088 13.533 14.3574 13.4369C14.4015 13.3499 14.4449 13.2634 14.4871 13.1759C14.5337 13.0772 14.5805 12.9779 14.6246 12.8788C14.6643 12.7904 14.7045 12.7025 14.7428 12.6137C14.7858 12.5132 14.8264 12.4116 14.8678 12.3102C14.9031 12.2209 14.9397 12.1321 14.9737 12.0426C15.0125 11.9398 15.0486 11.8369 15.0851 11.7336C15.1169 11.6444 15.1491 11.5548 15.1788 11.4651C15.2132 11.3603 15.2445 11.2562 15.2765 11.1509C15.3034 11.0625 15.3311 10.9742 15.3564 10.8858C15.3863 10.7796 15.4126 10.6734 15.4395 10.5668C15.4617 10.4802 15.4864 10.3937 15.5051 10.3072C15.5304 10.1982 15.5519 10.0907 15.5734 9.98267C15.5902 9.89932 15.609 9.81575 15.6238 9.73286C15.6439 9.61982 15.6594 9.50839 15.6759 9.39673C15.6871 9.32 15.701 9.24282 15.7104 9.16655C15.7259 9.04325 15.7357 8.92154 15.746 8.80005C15.7515 8.73726 15.7595 8.67378 15.7638 8.61281C15.7754 8.43059 15.7818 8.24996 15.7818 8.07276C15.7818 7.81884 15.767 7.56537 15.7421 7.31328C15.7337 7.22993 15.7188 7.14727 15.7081 7.06438C15.6857 6.89517 15.6613 6.72642 15.6282 6.55859C15.609 6.46177 15.5845 6.3654 15.5617 6.26904C15.5247 6.11468 15.485 5.96123 15.4391 5.80846C15.4092 5.71004 15.377 5.61186 15.3432 5.51412C15.3194 5.44448 15.3012 5.37392 15.2754 5.30518C16.0184 4.97225 16.8233 4.79985 17.6376 4.79962H17.6442C21.1277 4.79962 24.1914 8.07002 24.1983 11.8015C24.1035 13.9801 23.4228 16.093 22.2276 17.9173V17.9173Z" fill="#333333"/>
</svg>
