<svg width="20" height="20" viewBox="0 0 20 20" fill="none" xmlns="http://www.w3.org/2000/svg">
<path fill-rule="evenodd" clip-rule="evenodd" d="M3 2C2.73478 2 2.48043 2.10503 2.29289 2.29303C2.10536 2.48003 2 2.735 2 3V16.586L4.29289 14.293C4.48043 14.105 4.73478 14 5 14H17C17.2652 14 17.5196 13.895 17.7071 13.707C17.8946 13.52 18 13.265 18 13V3C18 2.735 17.8946 2.48003 17.7071 2.29303C17.5196 2.10503 17.2652 2 17 2H3ZM0.87868 0.879028C1.44129 0.316028 2.20435 0 3 0H17C17.7957 0 18.5587 0.316028 19.1213 0.879028C19.6839 1.44103 20 2.204 20 3V13C20 13.796 19.6839 14.559 19.1213 15.121C18.5587 15.684 17.7957 16 17 16H5.41421L1.70711 19.707C1.42111 19.993 0.99099 20.079 0.61732 19.924C0.24364 19.769 0 19.404 0 19V3C0 2.204 0.31607 1.44103 0.87868 0.879028Z" fill="#2F8DFA"/>
</svg>
