<svg width="20" height="27" viewBox="0 0 20 27" fill="none" xmlns="http://www.w3.org/2000/svg">
<path d="M18.6958 3.68949H17.323L16.2561 0.488739C16.1742 0.24297 15.9443 0.0770736 15.6853 0.0769043H3.64334C3.38431 0.0770736 3.1544 0.24297 3.07256 0.488739L2.00566 3.68949H0.632877C0.300351 3.68949 0.0307617 3.95907 0.0307617 4.2916V7.90418C0.0307617 8.23671 0.300351 8.5063 0.632877 8.5063H1.87561L3.00454 25.4451C3.04879 26.0777 3.57453 26.5685 4.20871 26.5692H15.1217C15.7559 26.5685 16.2817 26.0777 16.3259 25.4451L17.453 8.5063H18.6957C19.0283 8.5063 19.2978 8.23671 19.2978 7.90418V4.2916C19.2978 3.95907 19.0283 3.68949 18.6958 3.68949ZM4.07747 1.28108H15.2512L16.0537 3.68949H3.27486L4.07747 1.28108ZM15.1217 25.365H4.20691L3.08277 8.50624H16.2458L15.1217 25.365ZM18.0937 7.30207H1.23494V4.89366H18.0937V7.30207Z" fill="#333333"/>
</svg>
