<svg width="23" height="6" viewBox="0 0 23 6" fill="none" xmlns="http://www.w3.org/2000/svg">
<path fill-rule="evenodd" clip-rule="evenodd" d="M8.73877 3.00009C8.73877 1.65487 9.82882 0.565308 11.1736 0.565308C12.5183 0.565308 13.6083 1.65487 13.6083 3.00009C13.6083 4.34531 12.5183 5.43487 11.1736 5.43487C9.82882 5.43487 8.73877 4.34531 8.73877 3.00009Z" fill="#333333"/>
<path fill-rule="evenodd" clip-rule="evenodd" d="M17.2607 3.00009C17.2607 1.65487 18.3508 0.565308 19.6955 0.565308C21.0403 0.565308 22.1303 1.65487 22.1303 3.00009C22.1303 4.34531 21.0403 5.43487 19.6955 5.43487C18.3508 5.43487 17.2607 4.34531 17.2607 3.00009Z" fill="#333333"/>
<path fill-rule="evenodd" clip-rule="evenodd" d="M0.217285 3.00015C0.217285 1.65493 1.30737 0.565369 2.65207 0.565369C3.99676 0.565369 5.08685 1.65493 5.08685 3.00015C5.08685 4.34537 3.99676 5.43493 2.65207 5.43493C1.30737 5.43493 0.217285 4.34537 0.217285 3.00015Z" fill="#333333"/>
</svg>
