<svg width="30" height="31" viewBox="0 0 30 31" fill="none" xmlns="http://www.w3.org/2000/svg">
<path fill-rule="evenodd" clip-rule="evenodd" d="M4.09091 2.90139C3.72954 2.90139 3.38182 3.04472 3.12682 3.30134C2.87045 3.55659 2.72727 3.90467 2.72727 4.2664V16.5514C2.72727 16.9132 2.87045 17.2612 3.12682 17.5165C3.38182 17.7731 3.72954 17.9164 4.09091 17.9164H5.45455C6.20727 17.9164 6.81818 18.528 6.81818 19.2814C6.81818 20.0349 6.20727 20.6464 5.45455 20.6464H4.09091C3.00545 20.6464 1.965 20.2151 1.19863 19.4466C0.430906 18.6795 0 17.638 0 16.5514V4.2664C0 3.17985 0.430906 2.13835 1.19863 1.37122C1.965 0.602725 3.00545 0.171387 4.09091 0.171387H16.3636C17.4491 0.171387 18.4895 0.602725 19.2559 1.37122C20.0236 2.13835 20.4545 3.17985 20.4545 4.2664V5.6314C20.4545 6.38488 19.8436 6.9964 19.0909 6.9964C18.3382 6.9964 17.7273 6.38488 17.7273 5.6314V4.2664C17.7273 3.90467 17.5841 3.55659 17.3277 3.30134C17.0727 3.04472 16.725 2.90139 16.3636 2.90139H4.09091Z" fill="#333333"/>
<path d="M28.5 19.9641C28.5 24.7911 24.5912 28.7016 19.7727 28.7016C14.9542 28.7016 11.0454 24.7911 11.0454 19.9641C11.0454 15.1371 14.9542 11.2266 19.7727 11.2266C24.5912 11.2266 28.5 15.1371 28.5 19.9641Z" stroke="#333333" stroke-width="3"/>
</svg>
