<svg width="28" height="28" viewBox="0 0 28 28" fill="none" xmlns="http://www.w3.org/2000/svg">
<g clip-path="url(#clip0)">
<path d="M1.13106 0H9.71038C10.3351 0 10.8414 0.506406 10.8414 1.13105C10.8414 1.75569 10.3351 2.26209 9.71038 2.26209H2.26211V9.71037C2.26211 10.335 1.75575 10.8414 1.13106 10.8414C0.506364 10.8414 1.14441e-05 10.335 1.14441e-05 9.71037V1.13105C1.14441e-05 0.506406 0.506364 0 1.13106 0Z" fill="white"/>
<path d="M18.2896 25.738H25.7379V18.2897C25.7379 17.665 26.2443 17.1587 26.8689 17.1587C27.4936 17.1587 28 17.665 28 18.2897V26.8691C28 27.4938 27.4936 28.0001 26.869 28.0001H18.2896C17.665 28.0001 17.1586 27.4938 17.1586 26.8691C17.1585 26.2444 17.665 25.738 18.2896 25.738Z" fill="white"/>
<path d="M0.331268 0.331283C0.772979 -0.110428 1.48911 -0.110428 1.93082 0.331283L11.94 10.3405C12.3817 10.7822 12.3817 11.4983 11.94 11.94C11.7192 12.1608 11.4297 12.2713 11.1402 12.2713C10.8508 12.2713 10.5613 12.1609 10.3404 11.94L0.331268 1.93084C-0.110388 1.48913 -0.110388 0.772994 0.331268 0.331283Z" fill="white"/>
<path d="M16.06 16.06C16.5016 15.6183 17.2178 15.6183 17.6595 16.06L27.6687 26.0692C28.1104 26.5109 28.1104 27.227 27.6687 27.6687C27.4479 27.8897 27.1584 28 26.869 28C26.5795 28 26.29 27.8896 26.0692 27.6687L16.06 17.6595C15.6183 17.2179 15.6183 16.5018 16.06 16.06Z" fill="white"/>
</g>
<defs>
<clipPath id="clip0">
<rect width="28" height="28" fill="white" transform="matrix(-1 0 0 1 28 0)"/>
</clipPath>
</defs>
</svg>
