<svg width="24" height="24" viewBox="0 0 24 24" fill="none" xmlns="http://www.w3.org/2000/svg">
<path d="M18.72 4.64816C19.1755 4.15837 19.4596 3.49224 19.4596 2.75755C19.4596 1.22449 18.2351 0 16.751 0C15.6245 0 13.0286 1.6849 11.9902 3.19837C10.9176 1.6849 8.33143 0.0489796 7.24898 0.0489796C5.7698 0.0489796 4.54041 1.27347 4.54041 2.80653C4.54041 3.51673 4.8049 4.15837 5.23102 4.64327H0V11.231H1.4302V24H8.93878H15.0661H22.5747V11.2359H24V4.64816H18.72ZM16.751 1.02367C17.6718 1.02367 18.4359 1.78776 18.4359 2.81143C18.4359 3.67347 17.8335 4.41306 17.0547 4.5698H12.911C12.6465 4.49143 12.5633 4.39837 12.5633 4.34449C12.5633 3.47265 15.6245 1.02367 16.751 1.02367ZM7.24898 1.02367C8.32163 1.02367 11.4367 3.47265 11.4367 4.34449C11.4367 4.42286 11.2555 4.51102 11.1233 4.5698H6.9502C6.17143 4.41306 5.56898 3.67347 5.56898 2.81143C5.56408 1.83673 6.33306 1.02367 7.24898 1.02367ZM8.93388 22.9763H2.44898V11.2359H8.93388V22.9763ZM8.93388 10.2661H1.02367V5.67184H8.93878V10.2661H8.93388ZM14.0376 22.9763H9.95265V5.66694H14.0376V22.9763ZM21.5461 22.9763H15.0612V11.2359H21.5461V22.9763ZM22.9714 10.2661H15.0612V5.67184H22.9763V10.2661H22.9714Z" fill="#333333"/>
</svg>
