<svg width="23" height="30" viewBox="0 0 23 30" fill="none" xmlns="http://www.w3.org/2000/svg">
<path d="M22.822 26.3567L22.5748 25.4001C22.3243 24.431 21.3805 23.8236 20.4021 23.9849L18.7977 20.5136L18.7971 20.5123L14.2204 10.6108C14.0808 10.3087 13.8821 10.0507 13.6416 9.84675C13.9583 8.63308 14.4225 7.66126 15.0567 6.88317C16.0189 5.70274 17.4198 4.95776 19.2205 4.66895C19.5961 4.60878 19.9258 4.40582 20.1488 4.09763C20.3718 3.78944 20.4615 3.41277 20.4012 3.03719C20.3409 2.66162 20.1381 2.33191 19.8299 2.10887C19.5216 1.88578 19.145 1.79612 18.7695 1.85659C16.1244 2.2808 14.0715 3.44808 12.6543 5.32941C12.3756 4.71441 12.0347 4.10663 11.6278 3.53611C10.2878 1.6572 8.45263 0.483287 6.32103 0.141405C5.94546 0.0810587 5.56879 0.170597 5.26048 0.393691C4.95229 0.616728 4.74939 0.946438 4.68916 1.32201C4.62887 1.69764 4.71852 2.07426 4.94156 2.38245C5.16454 2.69064 5.49425 2.89354 5.86988 2.95377C6.98022 3.13187 7.94506 3.6534 8.74854 4.50609C7.98031 4.18815 7.16379 3.97752 6.3283 3.88705C5.63952 3.81257 4.93279 3.81661 4.22774 3.89905C3.99039 3.92675 3.82043 4.14171 3.84818 4.37905C3.87587 4.61645 4.09193 4.78653 4.32812 4.75861C4.96919 4.68372 5.61079 4.67997 6.23519 4.74747C7.51514 4.88605 8.74582 5.33449 9.79409 6.04427C11.0637 6.90394 12.0071 8.07797 12.4656 9.34344C12.383 9.33433 12.2995 9.32827 12.2146 9.32827C11.8989 9.32827 11.597 9.39358 11.3225 9.51346C10.9073 8.54649 10.1319 7.62261 9.16749 6.96959C8.02242 6.19433 5.5925 5.0972 2.18579 6.4596C1.89964 6.57394 1.57379 6.43433 1.45933 6.14829C1.34499 5.8622 1.4846 5.53629 1.77075 5.42189C1.9916 5.33356 2.21533 5.25222 2.43559 5.1801C2.66273 5.10574 2.78653 4.86136 2.71223 4.63428C2.63792 4.40721 2.39365 4.2834 2.1664 4.35771C1.9286 4.43559 1.68733 4.52328 1.44935 4.61847C0.720239 4.91005 0.36428 5.74047 0.655739 6.46969C0.947372 7.19869 1.77785 7.55453 2.50696 7.26319C5.54317 6.04889 7.6791 7.00709 8.68219 7.68624C9.57376 8.28987 10.2736 9.1515 10.5978 10.0297C10.442 10.1983 10.3096 10.3927 10.2087 10.6109L8.2345 14.8821L4.02697 23.9849C3.04869 23.8236 2.10479 24.431 1.85429 25.4002L1.60708 26.3567C1.4745 26.8696 1.5551 27.4001 1.83404 27.8503C2.11263 28.3 2.55103 28.6081 3.06853 28.7177C5.10188 29.1483 8.33915 29.6615 12.2145 29.6615C14.8407 29.6615 19.4796 28.8407 22.0434 28.3853C22.2787 28.3435 21.6475 28.4847 21.6057 28.2494C21.5639 28.0141 21.886 27.5972 21.6506 27.6391C19.1366 28.0857 14.7902 28.7961 12.2145 28.7961C8.41404 28.7961 5.24069 28.2931 3.24778 27.871C2.96353 27.8109 2.72267 27.6416 2.56961 27.3946C2.41632 27.147 2.37202 26.8553 2.44494 26.5733L2.69215 25.6167C2.8339 25.0684 3.37926 24.7304 3.93403 24.8475C4.48585 24.9638 5.13696 25.0868 5.87253 25.202C5.88107 25.2038 5.88984 25.2049 5.89855 25.2061C7.60514 25.4723 9.76599 25.6955 12.2144 25.6955C15.577 25.6955 18.3975 25.2746 20.2427 24.8996L20.2451 24.8991C20.3302 24.8818 20.414 24.8645 20.4949 24.8475C21.0494 24.7305 21.5951 25.0684 21.7368 25.6166L21.984 26.5733C22.0855 26.9658 21.9577 27.3742 21.6506 27.6391C21.4697 27.7952 21.4496 28.0684 21.6057 28.2494C21.7618 28.4303 22.035 28.4504 22.216 28.2943C22.7743 27.8128 23.0065 27.0703 22.822 26.3567ZM18.9068 2.711C19.0538 2.68724 19.2015 2.72243 19.3225 2.80989C19.4434 2.89746 19.5231 3.02687 19.5467 3.17427C19.5704 3.32162 19.5353 3.46936 19.4477 3.59029C19.3602 3.71121 19.2308 3.79082 19.0835 3.81448C17.0668 4.1379 15.4863 4.98643 14.386 6.33637C14.0267 6.77713 13.7174 7.26988 13.4537 7.8202C13.3584 7.32763 13.2202 6.81065 13.0376 6.28739C14.3199 4.33313 16.2932 3.13014 18.9068 2.711ZM10.5231 5.49954C10.3657 5.21541 10.195 4.94224 10.0134 4.68747C8.97371 3.22977 7.62568 2.35897 6.00684 2.0993C5.85944 2.07564 5.73009 1.99609 5.64263 1.87511C5.55505 1.75418 5.51992 1.60643 5.54357 1.45903C5.56723 1.31163 5.64684 1.18228 5.76782 1.09476C5.88874 1.0073 6.03632 0.972169 6.18378 0.995822C8.08185 1.30026 9.7207 2.35245 10.9232 4.03861C11.568 4.94264 12.1851 6.24885 12.5128 7.5494C11.9979 6.78134 11.323 6.08194 10.5231 5.49954ZM10.9943 10.9739C11.0825 10.7831 11.2062 10.6228 11.3558 10.4977C11.3628 10.4924 11.3697 10.4869 11.3763 10.4812C11.6067 10.2965 11.896 10.1937 12.2146 10.1937C12.4467 10.1937 12.6635 10.2482 12.8531 10.3491C12.8709 10.3613 12.8896 10.372 12.909 10.3816C12.9107 10.3826 12.9123 10.3839 12.9141 10.385C12.9175 10.3872 12.9224 10.3903 12.9249 10.3918C12.9307 10.3954 12.937 10.3979 12.943 10.4013C13.152 10.5352 13.3222 10.7301 13.4349 10.9739L13.9197 12.0227C12.4717 12.9021 10.9799 13.6561 9.46934 14.2732L10.9943 10.9739ZM8.94515 15.4071C10.7596 14.7292 12.5529 13.8581 14.2849 12.813L15.8697 16.2416C12.9624 18.0856 9.89689 19.4062 6.74086 20.1761L8.94515 15.4071ZM4.9006 24.1573L6.28105 21.1708C9.7282 20.4149 13.0737 19.0243 16.2357 17.0335L17.8455 20.5162C14.0709 22.6758 10.1818 23.9281 5.97113 24.3416C5.59002 24.2816 5.2325 24.2194 4.9006 24.1573ZM12.2145 24.8302C11.1686 24.8302 10.1768 24.7884 9.25178 24.72C12.3632 24.0785 15.3199 22.9497 18.2099 21.3047L19.5284 24.1574C17.7345 24.4931 15.1923 24.8302 12.2145 24.8302Z" fill="#333333"/>
</svg>
