<svg width="30" height="31" viewBox="0 0 30 31" fill="none" xmlns="http://www.w3.org/2000/svg">
<path fill-rule="evenodd" clip-rule="evenodd" d="M4.49994 3.25052C3.67195 3.25052 2.99996 3.92319 2.99996 4.75201V25.7728C2.99996 26.6016 3.67195 27.2743 4.49994 27.2743H25.4997C26.3277 27.2743 26.9997 26.6016 26.9997 25.7728V4.75201C26.9997 3.92319 26.3277 3.25052 25.4997 3.25052H4.49994ZM0 4.75201C0 2.26405 2.01447 0.247559 4.49994 0.247559H25.4997C27.9851 0.247559 29.9996 2.26405 29.9996 4.75201V25.7728C29.9996 28.2607 27.9851 30.2772 25.4997 30.2772H4.49994C2.01447 30.2772 0 28.2607 0 25.7728V4.75201Z" fill="#333333"/>
<path fill-rule="evenodd" clip-rule="evenodd" d="M9.74995 9.25638C9.33596 9.25638 8.99996 9.59272 8.99996 10.0071C8.99996 10.4215 9.33596 10.7579 9.74995 10.7579C10.1639 10.7579 10.4999 10.4215 10.4999 10.0071C10.4999 9.59272 10.1639 9.25638 9.74995 9.25638ZM6 10.0071C6 7.93358 7.67848 6.25342 9.74995 6.25342C11.8214 6.25342 13.4999 7.93358 13.4999 10.0071C13.4999 12.0807 11.8214 13.7608 9.74995 13.7608C7.67848 13.7608 6 12.0807 6 10.0071Z" fill="#333333"/>
<path fill-rule="evenodd" clip-rule="evenodd" d="M19.9392 11.1981C20.5242 10.611 21.4752 10.611 22.0601 11.1981L29.56 18.7055C30.1465 19.2911 30.1465 20.2431 29.56 20.8286C28.9751 21.4157 28.0241 21.4157 27.4391 20.8286L20.9997 14.3828L5.56036 29.8375C4.97536 30.4246 4.02437 30.4246 3.43938 29.8375C2.85289 29.2519 2.85289 28.3 3.43938 27.7144L19.9392 11.1981Z" fill="#333333"/>
</svg>
