<svg width="24" height="31" viewBox="0 0 24 31" fill="none" xmlns="http://www.w3.org/2000/svg">
<path d="M23.3256 0.861206H1.36651C1.06206 0.861206 0.81543 1.10796 0.81543 1.41228V29.8486C0.81543 30.1529 1.06212 30.3997 1.36651 30.3997H23.3256C23.6301 30.3997 23.8767 30.1529 23.8767 29.8486V1.41228C23.8767 1.10796 23.63 0.861206 23.3256 0.861206ZM22.7745 29.2975H1.91758V1.96336H22.7745V29.2975Z" fill="#333333"/>
<path d="M15.0979 17.7529C13.5806 16.2357 11.1122 16.2358 9.59528 17.7529C8.07826 19.2699 8.07826 21.7383 9.59528 23.2553L11.9569 25.6168C12.0603 25.7202 12.2004 25.7783 12.3466 25.7783C12.4929 25.7783 12.6329 25.7202 12.7363 25.6168L15.0978 23.2553C15.8327 22.5204 16.2375 21.5434 16.2375 20.5041C16.2375 19.4648 15.8327 18.4877 15.0979 17.7529ZM14.3183 22.476L12.3465 24.4479L10.3746 22.476C9.28732 21.3887 9.28732 19.6196 10.3746 18.5323C10.9182 17.9887 11.6324 17.7168 12.3465 17.7168C13.0606 17.7168 13.7747 17.9886 14.3184 18.5323C14.8451 19.059 15.1352 19.7593 15.1352 20.5041C15.1352 21.249 14.8451 21.9492 14.3183 22.476Z" fill="#333333"/>
<path d="M12.3462 18.922C11.3751 18.922 10.585 19.7121 10.585 20.6833C10.585 21.6545 11.3751 22.4446 12.3462 22.4446C13.3174 22.4446 14.1075 21.6545 14.1075 20.6833C14.1075 19.7121 13.3174 18.922 12.3462 18.922ZM12.3462 21.3424C11.9828 21.3424 11.6872 21.0467 11.6872 20.6833C11.6872 20.3199 11.9828 20.0242 12.3462 20.0242C12.7098 20.0242 13.0054 20.3199 13.0054 20.6833C13.0053 21.0467 12.7097 21.3424 12.3462 21.3424Z" fill="#333333"/>
<path d="M16.2564 6.31116H8.43633C8.13189 6.31116 7.88525 6.55791 7.88525 6.86223C7.88525 7.16656 8.132 7.41331 8.43633 7.41331H16.2563C16.5607 7.41331 16.8074 7.16656 16.8074 6.86223C16.8074 6.55791 16.5607 6.31116 16.2564 6.31116Z" fill="#333333"/>
<path d="M19.1387 10.0511H5.55254C5.2481 10.0511 5.00146 10.2978 5.00146 10.6022C5.00146 10.9065 5.24816 11.1532 5.55254 11.1532H19.1388C19.4432 11.1532 19.6899 10.9065 19.6899 10.6022C19.6899 10.2978 19.4432 10.0511 19.1387 10.0511Z" fill="#333333"/>
<path d="M19.1387 12.6768H5.55254C5.2481 12.6768 5.00146 12.9236 5.00146 13.2279C5.00146 13.5322 5.24816 13.779 5.55254 13.779H19.1388C19.4432 13.779 19.6899 13.5322 19.6899 13.2279C19.6899 12.9236 19.4432 12.6768 19.1387 12.6768Z" fill="#333333"/>
</svg>
