<svg width="30" height="31" viewBox="0 0 30 31" fill="none" xmlns="http://www.w3.org/2000/svg">
<path fill-rule="evenodd" clip-rule="evenodd" d="M14.3906 0.163391C14.7737 -0.0290729 15.2265 -0.0290729 15.6096 0.163391L29.2459 6.98834C29.7081 7.21902 30 7.69128 30 8.20861C30 8.72594 29.7081 9.1982 29.2459 9.42889L15.6096 16.2538C15.2265 16.4463 14.7737 16.4463 14.3906 16.2538L0.754059 9.42889C0.292064 9.1982 0.000244141 8.72594 0.000244141 8.20861C0.000244141 7.69128 0.292064 7.21902 0.754059 6.98834L14.3906 0.163391ZM4.41293 8.20861L15.0001 13.5075L25.5873 8.20861L15.0001 2.9097L4.41293 8.20861Z" fill="#333333"/>
<path fill-rule="evenodd" clip-rule="evenodd" d="M0.144274 21.2482C0.481089 20.5739 1.30008 20.301 1.97371 20.6381L15.0001 27.1573L28.0268 20.6381C28.7005 20.301 29.5186 20.5739 29.8554 21.2482C30.1923 21.9225 29.9195 22.7415 29.2459 23.0787L15.6097 29.9036C15.2265 30.0961 14.7738 30.0961 14.3906 29.9036L0.754093 23.0787C0.0804632 22.7415 -0.19254 21.9225 0.144274 21.2482Z" fill="#333333"/>
<path fill-rule="evenodd" clip-rule="evenodd" d="M0.144274 14.4235C0.481089 13.7492 1.30008 13.4763 1.97371 13.8134L15.0001 20.3326L28.0268 13.8134C28.7005 13.4763 29.5186 13.7492 29.8554 14.4235C30.1923 15.0978 29.9195 15.9168 29.2459 16.254L15.6097 23.0789C15.2265 23.2714 14.7738 23.2714 14.3906 23.0789L0.754093 16.254C0.0804632 15.9168 -0.19254 15.0978 0.144274 14.4235Z" fill="#333333"/>
</svg>
