<svg width="28" height="29" viewBox="0 0 28 29" fill="none" xmlns="http://www.w3.org/2000/svg">
<path fill-rule="evenodd" clip-rule="evenodd" d="M4.2 2.899C3.4272 2.899 2.8 3.52683 2.8 4.3004V23.92C2.8 24.6936 3.4272 25.3214 4.2 25.3214H23.8C24.5728 25.3214 25.2 24.6936 25.2 23.92V4.3004C25.2 3.52683 24.5728 2.899 23.8 2.899H4.2ZM0 4.3004C0 1.97828 1.8802 0.0961914 4.2 0.0961914H23.8C26.1198 0.0961914 28 1.97828 28 4.3004V23.92C28 26.2422 26.1198 28.1243 23.8 28.1243H4.2C1.8802 28.1243 0 26.2422 0 23.92V4.3004Z" fill="#333333"/>
<path fill-rule="evenodd" clip-rule="evenodd" d="M9.7999 0.0961914C10.5727 0.0961914 11.1999 0.72402 11.1999 1.49759V26.7228C11.1999 27.4964 10.5727 28.1243 9.7999 28.1243C9.0271 28.1243 8.3999 27.4964 8.3999 26.7228V1.49759C8.3999 0.72402 9.0271 0.0961914 9.7999 0.0961914Z" fill="#333333"/>
<path fill-rule="evenodd" clip-rule="evenodd" d="M28 14.1104C28 14.884 27.5923 15.5118 27.09 15.5118L10.71 15.5118C10.2077 15.5118 9.8 14.884 9.8 14.1104C9.8 13.3368 10.2077 12.709 10.71 12.709L27.09 12.709C27.5923 12.709 28 13.3368 28 14.1104Z" fill="#333333"/>
</svg>
