<svg width="30" height="31" viewBox="0 0 30 31" fill="none" xmlns="http://www.w3.org/2000/svg">
<path d="M20.4043 13.8849C20.612 12.2469 20.1669 10.7034 19.2175 9.56942C18.5055 8.71892 17.1407 7.71094 14.6782 7.71094C10.4651 7.71094 9.54541 11.0184 9.54541 12.2784C9.54541 12.9714 10.0795 13.5384 10.7322 13.5384C11.3849 13.5384 11.919 12.9714 11.919 12.2784C11.919 12.0894 12.0079 10.2309 14.6782 10.2309C15.9243 10.2309 16.844 10.5774 17.4078 11.2389C18.1198 12.0579 18.0901 13.1604 18.0308 13.5699C17.8824 14.8299 17.2891 15.4599 16.132 15.4599C14.0255 15.4599 13.6101 16.6884 13.6101 17.7279V18.7359C13.6101 19.4289 14.1441 19.9958 14.7969 19.9958C15.4496 19.9958 15.9836 19.4289 15.9836 18.7359V17.9799H16.132C17.9714 17.9799 20.0483 16.9089 20.4043 13.8849Z" fill="#676767"/>
<path d="M15 30.9158C6.68182 30.9158 0 24.2273 0 15.9008C0 7.57425 6.68182 0.885742 15 0.885742C23.3182 0.885742 30 7.57425 30 15.9008C30 24.2273 23.3182 30.9158 15 30.9158ZM15 3.61574C8.18182 3.61574 2.72727 9.07575 2.72727 15.9008C2.72727 22.7258 8.18182 28.1858 15 28.1858C21.8182 28.1858 27.2727 22.7258 27.2727 15.9008C27.2727 9.07575 21.8182 3.61574 15 3.61574Z" fill="#676767"/>
<ellipse cx="15.0001" cy="22.7259" rx="1.36364" ry="1.36502" fill="#676767"/>
</svg>
