<svg width="30" height="31" viewBox="0 0 30 31" fill="none" xmlns="http://www.w3.org/2000/svg">
<path fill-rule="evenodd" clip-rule="evenodd" d="M15 13.4581C13.6193 13.4581 12.5 14.578 12.5 15.9606C12.5 17.3432 13.6193 18.4631 15 18.4631C16.3807 18.4631 17.5 17.3432 17.5 15.9606C17.5 14.578 16.3807 13.4581 15 13.4581ZM10 15.9606C10 13.1966 12.2386 10.9556 15 10.9556C17.7614 10.9556 20 13.1966 20 15.9606C20 18.7246 17.7614 20.9656 15 20.9656C12.2386 20.9656 10 18.7246 10 15.9606Z" fill="#676767"/>
<path fill-rule="evenodd" clip-rule="evenodd" d="M15 3.4483C14.6685 3.4483 14.3505 3.57972 14.1161 3.81496C13.8818 4.04894 13.75 4.36797 13.75 4.69955V4.91729C13.7474 5.56418 13.556 6.19607 13.1992 6.73536C12.8426 7.27465 12.3363 7.69755 11.7424 7.95156C11.6368 7.9966 11.5255 8.02788 11.412 8.04289C10.8725 8.23183 10.2916 8.27815 9.72625 8.17555C9.075 8.05668 8.47412 7.74635 8.00087 7.28339L7.991 7.27339L7.91613 7.19831C7.8 7.08195 7.66163 6.98938 7.50988 6.92682C7.35813 6.863 7.1955 6.83044 7.03125 6.83044C6.867 6.83044 6.70437 6.863 6.55262 6.92682C6.40087 6.98938 6.263 7.08195 6.14687 7.19831H6.14587C6.02962 7.31468 5.9375 7.45359 5.87462 7.60499C5.81162 7.75639 5.77925 7.9203 5.77925 8.08421C5.77925 8.24812 5.81162 8.41203 5.87462 8.56343C5.9375 8.71484 6.02962 8.85369 6.14587 8.96881L6.23113 9.05518C6.694 9.52816 7.00438 10.13 7.1225 10.7819C7.23813 11.4213 7.16388 12.0794 6.90938 12.6763C6.67738 13.2844 6.27125 13.8124 5.74125 14.1915C5.20062 14.5782 4.55625 14.7934 3.89175 14.8097H3.8625H3.75C3.4185 14.8097 3.1005 14.941 2.86613 15.1763C2.63175 15.4102 2.5 15.7294 2.5 16.0609C2.5 16.3925 2.63175 16.7116 2.86613 16.9455C3.1005 17.1808 3.4185 17.3122 3.75 17.3122H3.9675C4.6135 17.3147 5.24462 17.5061 5.78325 17.864C6.32 18.2193 6.7415 18.7236 6.99625 19.3155C7.26137 19.9198 7.34013 20.5904 7.2225 21.2398C7.10437 21.8917 6.79387 22.4936 6.33112 22.9666L6.32137 22.9766L6.24638 23.0516C6.13013 23.168 6.0375 23.3069 5.97463 23.4583C5.91163 23.6097 5.87925 23.7736 5.87925 23.9375C5.87925 24.1015 5.91163 24.2654 5.97463 24.4168C6.0375 24.5682 6.12963 24.7071 6.24588 24.8234H6.24688C6.363 24.9398 6.50088 25.0324 6.65263 25.0949C6.80438 25.1587 6.967 25.1913 7.13125 25.1913C7.2955 25.1913 7.45812 25.1587 7.60987 25.0949C7.76162 25.0324 7.8995 24.9398 8.01562 24.8234L8.10088 24.7384C8.574 24.2754 9.175 23.9651 9.82625 23.8462C10.4645 23.7298 11.1225 23.8049 11.7185 24.0602C12.3266 24.2917 12.8534 24.6983 13.2324 25.2288C13.619 25.7694 13.8341 26.415 13.8496 27.0807L13.85 27.1094V27.2221C13.85 27.5537 13.9817 27.8727 14.2161 28.1067C14.4505 28.3419 14.7685 28.4733 15.1 28.4733C15.4315 28.4733 15.7495 28.3419 15.9839 28.1067C16.2183 27.8727 16.35 27.5537 16.35 27.2221V27.0094V27.0043C16.3526 26.3574 16.544 25.7256 16.9007 25.1863C17.2562 24.6495 17.7604 24.2279 18.3515 23.9726C18.9554 23.7073 19.6248 23.6285 20.2738 23.7461C20.925 23.865 21.5259 24.1753 21.9991 24.6382L22.0089 24.6482L22.0839 24.7233C22.2 24.8397 22.3384 24.9323 22.4901 24.9948C22.6419 25.0586 22.8045 25.0912 22.9688 25.0912C23.133 25.0912 23.2956 25.0586 23.4474 24.9948C23.5991 24.9323 23.737 24.8397 23.8531 24.7233L23.8541 24.7221C23.9704 24.607 24.0625 24.468 24.1254 24.3166C24.1884 24.1652 24.2208 24.0013 24.2208 23.8374C24.2208 23.6735 24.1884 23.5096 24.1254 23.3582C24.0625 23.2068 23.9704 23.0679 23.8541 22.9515L23.7689 22.8664C23.306 22.3935 22.9956 21.7916 22.8775 21.1397C22.7599 20.4903 22.8386 19.8197 23.1036 19.2153C23.3584 18.6235 23.78 18.1192 24.3167 17.7638C24.8554 17.406 25.4865 17.2146 26.1325 17.2121H26.1375H26.25C26.5815 17.2121 26.8995 17.0806 27.1339 16.8454C27.3682 16.6114 27.5 16.2924 27.5 15.9608C27.5 15.6292 27.3682 15.3102 27.1339 15.0762C26.8995 14.841 26.5815 14.7096 26.25 14.7096H26.0375H26.0325C25.3865 14.7071 24.7554 14.5156 24.2167 14.1578C23.6781 13.8012 23.2556 13.2944 23.0011 12.7C22.9558 12.5937 22.9254 12.4823 22.9105 12.3697C22.7216 11.8292 22.675 11.2474 22.7775 10.6818C22.8956 10.0299 23.2061 9.42803 23.6689 8.95506L23.6785 8.94506L23.7536 8.86998C23.8699 8.75362 23.9625 8.61471 24.0254 8.46331C24.0884 8.31191 24.1208 8.148 24.1208 7.98409C24.1208 7.82018 24.0884 7.65627 24.0254 7.50487C23.9625 7.35346 23.8704 7.21461 23.7541 7.09949L23.7531 7.09819C23.637 6.98183 23.4991 6.88926 23.3474 6.8267C23.1956 6.76288 23.033 6.73032 22.8687 6.73032C22.7045 6.73032 22.5419 6.76288 22.3901 6.8267C22.2384 6.88926 22.1005 6.98183 21.9844 7.09819L21.8991 7.18327C21.426 7.64623 20.825 7.95656 20.1737 8.07543C19.5247 8.19305 18.8554 8.11425 18.2514 7.84899C17.6603 7.59373 17.1561 7.17202 16.8008 6.63524C16.444 6.09595 16.2526 5.46406 16.25 4.81716V4.8122V4.69955C16.25 4.36797 16.1182 4.04894 15.8839 3.81496C15.6495 3.57972 15.3315 3.4483 15 3.4483ZM24.25 19.7146L25.3936 20.2201C25.328 20.369 25.3085 20.5329 25.3375 20.693C25.3661 20.8519 25.4409 20.9971 25.5524 21.1134L25.6209 21.181C25.6207 21.181 25.621 21.1823 25.6209 21.181C25.9694 21.5301 26.2463 21.9443 26.4349 22.3997C26.6236 22.8552 26.7208 23.3444 26.7208 23.8374C26.7208 24.3304 26.6236 24.8196 26.4349 25.2751C26.2461 25.7305 25.9695 26.1447 25.6209 26.4926L24.7375 25.608L25.6219 26.4926C25.2736 26.8417 24.86 27.1182 24.4048 27.3072C23.9495 27.4961 23.4615 27.5937 22.9688 27.5937C22.476 27.5937 21.988 27.4961 21.5327 27.3072C21.0777 27.1182 20.6642 26.8417 20.3161 26.4926C20.3162 26.4926 20.316 26.4926 20.3161 26.4926L20.2471 26.4238C20.1316 26.3124 19.9858 26.2373 19.8278 26.2086C19.668 26.1798 19.5032 26.1985 19.3547 26.2649L19.3425 26.2699C19.1967 26.3325 19.0725 26.4363 18.9851 26.569C18.8979 26.7003 18.851 26.8542 18.85 27.0131V27.2221C18.85 28.2181 18.4549 29.1727 17.7516 29.8759C17.0484 30.5804 16.0946 30.9758 15.1 30.9758C14.1054 30.9758 13.1516 30.5804 12.4484 29.8759C11.7451 29.1727 11.35 28.2181 11.35 27.2221V27.127C11.3441 26.9681 11.2916 26.8142 11.1989 26.684C11.1041 26.5514 10.9715 26.4513 10.8185 26.395C10.7938 26.385 10.7694 26.375 10.7452 26.365C10.5967 26.2987 10.432 26.2799 10.2723 26.3087C10.1143 26.3375 9.96838 26.4125 9.85288 26.5239L9.78437 26.5927C9.7845 26.5927 9.78425 26.5927 9.78437 26.5927C9.43625 26.9406 9.02225 27.2183 8.56725 27.4073C8.112 27.5962 7.624 27.6938 7.13125 27.6938C6.6385 27.6938 6.1505 27.5962 5.69525 27.4073C5.24037 27.2183 4.82713 26.9418 4.47913 26.5939C4.1305 26.2448 3.85387 25.8307 3.66512 25.3752C3.47637 24.9198 3.37925 24.4305 3.37925 23.9375C3.37925 23.4445 3.47637 22.9553 3.66512 22.4999C3.85387 22.0444 4.1305 21.6303 4.47913 21.2812L4.54762 21.2136C4.65912 21.0972 4.73388 20.9521 4.7625 20.7931C4.7915 20.633 4.772 20.4691 4.70637 20.3202L4.701 20.3077C4.63862 20.1613 4.535 20.0374 4.40288 19.9498C4.27125 19.8622 4.11712 19.8159 3.95937 19.8147H3.75C2.75537 19.8147 1.80163 19.4193 1.09838 18.7148C0.395125 18.0116 0 17.0569 0 16.0609C0 15.0649 0.395125 14.1102 1.09838 13.407C1.80163 12.7025 2.75537 12.3072 3.75 12.3072H3.8445C4.0035 12.3009 4.15737 12.2483 4.287 12.1557C4.4195 12.0606 4.5205 11.9281 4.57687 11.7754C4.58587 11.7504 4.59575 11.7266 4.60638 11.7016C4.672 11.5527 4.6915 11.3888 4.6625 11.2286C4.63387 11.0697 4.55913 10.9246 4.44763 10.8082L4.37912 10.7394C4.0305 10.3915 3.75388 9.97734 3.56513 9.52188C3.37638 9.06643 3.27925 8.5772 3.27925 8.08421C3.27925 7.59122 3.37638 7.10199 3.56513 6.64654C3.75375 6.19108 4.03012 5.77689 4.37862 5.42904C4.72675 5.07994 5.14025 4.80342 5.59525 4.61448C6.0505 4.42554 6.5385 4.32794 7.03125 4.32794C7.524 4.32794 8.012 4.42554 8.46725 4.61448C8.9225 4.80342 9.33613 5.07994 9.68438 5.42904L9.75287 5.49785C9.86837 5.60921 10.0142 5.68429 10.1722 5.71306C10.332 5.74184 10.4968 5.7231 10.6453 5.65678C10.7254 5.62175 10.8086 5.59418 10.8939 5.57667C10.981 5.51786 11.0562 5.44151 11.1149 5.35267C11.2021 5.22129 11.249 5.06741 11.25 4.9085V4.69955C11.25 3.70356 11.6451 2.74889 12.3484 2.04569C13.0516 1.34123 14.0055 0.945801 15 0.945801C15.9945 0.945801 16.9484 1.34123 17.6516 2.04569C18.3549 2.74889 18.75 3.70356 18.75 4.69955V4.80838C18.751 4.96729 18.7979 5.12125 18.8851 5.25263C18.9725 5.38526 19.0968 5.48913 19.2424 5.55169L19.2548 5.55666C19.4033 5.62297 19.568 5.64172 19.7277 5.61294C19.8857 5.58416 20.0316 5.50909 20.1471 5.39773L20.2156 5.32892C20.5639 4.97982 20.9775 4.7033 21.4328 4.51436C21.888 4.32542 22.376 4.22781 22.8687 4.22781C23.3615 4.22781 23.8495 4.32542 24.3048 4.51436C24.76 4.7033 25.1736 4.97982 25.5219 5.32892C25.8701 5.67802 26.1464 6.09096 26.3349 6.54642C26.5236 7.00187 26.6208 7.4911 26.6208 7.98409C26.6208 8.47708 26.5236 8.9663 26.3349 9.42176C26.1463 9.87722 25.8699 10.2914 25.5214 10.6393C25.5215 10.6393 25.5212 10.6393 25.5214 10.6393L25.4524 10.7081C25.3409 10.8244 25.2661 10.9696 25.2375 11.1285C25.2085 11.2886 25.228 11.4525 25.2936 11.6014C25.3289 11.6815 25.3556 11.7654 25.3735 11.8505C25.4326 11.9381 25.5085 12.0132 25.5971 12.072C25.7287 12.1596 25.8829 12.2058 26.0406 12.2071H26.25C27.2446 12.2071 28.1984 12.6025 28.9016 13.3069C29.6049 14.0101 30 14.9648 30 15.9608C30 16.9568 29.6049 17.9115 28.9016 18.6147C28.1984 19.3191 27.2446 19.7146 26.25 19.7146H26.1406C25.9829 19.7158 25.8288 19.7621 25.6971 19.8497C25.565 19.9373 25.4614 20.0611 25.3989 20.2075L24.25 19.7146Z" fill="#676767"/>
</svg>
