<svg width="30" height="31" viewBox="0 0 30 31" fill="none" xmlns="http://www.w3.org/2000/svg">
<path fill-rule="evenodd" clip-rule="evenodd" d="M0 1.99207C0 1.07448 0.7462 0.32373 1.66667 0.32373H28.3333C29.2538 0.32373 30 1.07448 30 1.99207V6.99709C30 7.91468 29.2538 8.66544 28.3333 8.66544C27.4128 8.66544 26.6667 7.91468 26.6667 6.99709V3.66041H3.33333V6.99709C3.33333 7.91468 2.58713 8.66544 1.66667 8.66544C0.7462 8.66544 0 7.91468 0 6.99709V1.99207Z" fill="#333333"/>
<path fill-rule="evenodd" clip-rule="evenodd" d="M8.33325 28.6854C8.33325 27.7678 9.07945 27.0171 9.99992 27.0171H19.9999C20.9204 27.0171 21.6666 27.7678 21.6666 28.6854C21.6666 29.603 20.9204 30.3538 19.9999 30.3538H9.99992C9.07945 30.3538 8.33325 29.603 8.33325 28.6854Z" fill="#333333"/>
<path fill-rule="evenodd" clip-rule="evenodd" d="M14.9999 0.32373C15.9204 0.32373 16.6666 1.07448 16.6666 1.99207V28.6855C16.6666 29.603 15.9204 30.3538 14.9999 30.3538C14.0794 30.3538 13.3333 29.603 13.3333 28.6855V1.99207C13.3333 1.07448 14.0794 0.32373 14.9999 0.32373Z" fill="#333333"/>
</svg>
