<svg width="30" height="31" viewBox="0 0 30 31" fill="none" xmlns="http://www.w3.org/2000/svg">
<path fill-rule="evenodd" clip-rule="evenodd" d="M1.5 18.0181C2.32842 18.0181 3 18.6907 3 19.5196V25.5256C3 25.9235 3.15804 26.3064 3.43934 26.5871C3.72065 26.8694 4.10217 27.0271 4.5 27.0271H25.5C25.8978 27.0271 26.2794 26.8694 26.5606 26.5871C26.8419 26.3064 27 25.9235 27 25.5256V19.5196C27 18.6907 27.6716 18.0181 28.5 18.0181C29.3284 18.0181 30 18.6907 30 19.5196V25.5256C30 26.7208 29.5259 27.8664 28.6819 28.7103C27.838 29.5556 26.6936 30.0301 25.5 30.0301H4.5C3.30652 30.0301 2.16193 29.5556 1.31802 28.7103C0.474105 27.8664 0 26.7208 0 25.5256V19.5196C0 18.6907 0.67158 18.0181 1.5 18.0181Z" fill="#333333"/>
<path fill-rule="evenodd" clip-rule="evenodd" d="M23.5607 10.0709C22.9749 10.658 22.0251 10.658 21.4393 10.0709L15 3.62495L8.56065 10.0709C7.9749 10.658 7.0251 10.658 6.43935 10.0709C5.8536 9.48533 5.8536 8.53337 6.43935 7.94778L13.9394 0.440256C14.5251 -0.146832 15.4749 -0.146832 16.0607 0.440256L23.5607 7.94778C24.1464 8.53337 24.1464 9.48533 23.5607 10.0709Z" fill="#333333"/>
<path fill-rule="evenodd" clip-rule="evenodd" d="M15 21.0215C14.1716 21.0215 13.5 20.3488 13.5 19.52L13.5 1.50193C13.5 0.673101 14.1716 0.000427042 15 0.000427115C15.8285 0.000427187 16.5 0.673101 16.5 1.50193L16.5 19.52C16.5 20.3488 15.8285 21.0215 15 21.0215Z" fill="#333333"/>
</svg>
